<mxfile host="Electron" agent="Mozilla/5.0 (Windows NT 10.0; Win64; x64) AppleWebKit/537.36 (KHTML, like Gecko) draw.io/24.7.8 Chrome/128.0.6613.36 Electron/32.0.1 Safari/537.36" version="24.7.8">
  <diagram id="R2lEEEUBdFMjLlhIrx00" name="Page-1">
    <mxGraphModel dx="2578" dy="997" grid="1" gridSize="10" guides="1" tooltips="1" connect="1" arrows="1" fold="1" page="1" pageScale="1" pageWidth="850" pageHeight="1100" math="0" shadow="0" extFonts="Permanent Marker^https://fonts.googleapis.com/css?family=Permanent+Marker">
      <root>
        <mxCell id="0" />
        <mxCell id="1" parent="0" />
        <mxCell id="X2HxyjHTgqROEiRyxZ6q-1" value="naruzbina" style="whiteSpace=wrap;html=1;align=center;" vertex="1" parent="1">
          <mxGeometry x="270" y="310" width="100" height="40" as="geometry" />
        </mxCell>
        <mxCell id="X2HxyjHTgqROEiRyxZ6q-2" value="narucilac" style="whiteSpace=wrap;html=1;align=center;" vertex="1" parent="1">
          <mxGeometry x="50" y="510" width="100" height="40" as="geometry" />
        </mxCell>
        <mxCell id="X2HxyjHTgqROEiRyxZ6q-3" value="restoran" style="whiteSpace=wrap;html=1;align=center;" vertex="1" parent="1">
          <mxGeometry x="560" y="720" width="100" height="40" as="geometry" />
        </mxCell>
        <mxCell id="X2HxyjHTgqROEiRyxZ6q-4" value="jelo" style="whiteSpace=wrap;html=1;align=center;" vertex="1" parent="1">
          <mxGeometry x="560" y="470" width="100" height="40" as="geometry" />
        </mxCell>
        <mxCell id="X2HxyjHTgqROEiRyxZ6q-5" value="dostavljac" style="whiteSpace=wrap;html=1;align=center;" vertex="1" parent="1">
          <mxGeometry x="-130" y="310" width="100" height="40" as="geometry" />
        </mxCell>
        <mxCell id="X2HxyjHTgqROEiRyxZ6q-6" value="id" style="ellipse;whiteSpace=wrap;html=1;align=center;fontStyle=4;" vertex="1" parent="1">
          <mxGeometry x="510" y="780" width="60" height="30" as="geometry" />
        </mxCell>
        <mxCell id="X2HxyjHTgqROEiRyxZ6q-7" value="adresa" style="ellipse;whiteSpace=wrap;html=1;align=center;" vertex="1" parent="1">
          <mxGeometry x="580" y="790" width="80" height="30" as="geometry" />
        </mxCell>
        <mxCell id="X2HxyjHTgqROEiRyxZ6q-8" value="naziv" style="ellipse;whiteSpace=wrap;html=1;align=center;" vertex="1" parent="1">
          <mxGeometry x="680" y="770" width="70" height="30" as="geometry" />
        </mxCell>
        <mxCell id="X2HxyjHTgqROEiRyxZ6q-9" value="id" style="ellipse;whiteSpace=wrap;html=1;align=center;fontStyle=4;" vertex="1" parent="1">
          <mxGeometry x="690" y="460" width="70" height="30" as="geometry" />
        </mxCell>
        <mxCell id="X2HxyjHTgqROEiRyxZ6q-10" value="restoran_id" style="ellipse;whiteSpace=wrap;html=1;align=center;" vertex="1" parent="1">
          <mxGeometry x="650" y="410" width="80" height="30" as="geometry" />
        </mxCell>
        <mxCell id="X2HxyjHTgqROEiRyxZ6q-11" value="naziv" style="ellipse;whiteSpace=wrap;html=1;align=center;" vertex="1" parent="1">
          <mxGeometry x="630" y="540" width="60" height="30" as="geometry" />
        </mxCell>
        <mxCell id="X2HxyjHTgqROEiRyxZ6q-12" value="cijena" style="ellipse;whiteSpace=wrap;html=1;align=center;" vertex="1" parent="1">
          <mxGeometry x="690" y="520" width="70" height="30" as="geometry" />
        </mxCell>
        <mxCell id="X2HxyjHTgqROEiRyxZ6q-13" value="id" style="ellipse;whiteSpace=wrap;html=1;align=center;fontStyle=4;" vertex="1" parent="1">
          <mxGeometry x="-180" y="370" width="50" height="30" as="geometry" />
        </mxCell>
        <mxCell id="X2HxyjHTgqROEiRyxZ6q-14" value="ime" style="ellipse;whiteSpace=wrap;html=1;align=center;" vertex="1" parent="1">
          <mxGeometry x="-220" y="320" width="70" height="30" as="geometry" />
        </mxCell>
        <mxCell id="X2HxyjHTgqROEiRyxZ6q-15" value="prezime" style="ellipse;whiteSpace=wrap;html=1;align=center;" vertex="1" parent="1">
          <mxGeometry x="-220" y="270" width="70" height="30" as="geometry" />
        </mxCell>
        <mxCell id="X2HxyjHTgqROEiRyxZ6q-17" value="id" style="ellipse;whiteSpace=wrap;html=1;align=center;fontStyle=4;" vertex="1" parent="1">
          <mxGeometry x="20" y="450" width="60" height="30" as="geometry" />
        </mxCell>
        <mxCell id="X2HxyjHTgqROEiRyxZ6q-18" value="telefon" style="ellipse;whiteSpace=wrap;html=1;align=center;" vertex="1" parent="1">
          <mxGeometry x="-30" y="540" width="60" height="30" as="geometry" />
        </mxCell>
        <mxCell id="X2HxyjHTgqROEiRyxZ6q-19" value="adresa" style="ellipse;whiteSpace=wrap;html=1;align=center;" vertex="1" parent="1">
          <mxGeometry x="40" y="570" width="60" height="30" as="geometry" />
        </mxCell>
        <mxCell id="X2HxyjHTgqROEiRyxZ6q-20" value="ime" style="ellipse;whiteSpace=wrap;html=1;align=center;" vertex="1" parent="1">
          <mxGeometry x="-30" y="490" width="60" height="30" as="geometry" />
        </mxCell>
        <mxCell id="X2HxyjHTgqROEiRyxZ6q-21" value="id" style="ellipse;whiteSpace=wrap;html=1;align=center;fontStyle=4;" vertex="1" parent="1">
          <mxGeometry x="190" y="280" width="50" height="30" as="geometry" />
        </mxCell>
        <mxCell id="X2HxyjHTgqROEiRyxZ6q-22" value="dostavljac_id" style="ellipse;whiteSpace=wrap;html=1;align=center;" vertex="1" parent="1">
          <mxGeometry x="360" y="230" width="90" height="30" as="geometry" />
        </mxCell>
        <mxCell id="X2HxyjHTgqROEiRyxZ6q-23" value="status" style="ellipse;whiteSpace=wrap;html=1;align=center;" vertex="1" parent="1">
          <mxGeometry x="220" y="240" width="60" height="30" as="geometry" />
        </mxCell>
        <mxCell id="X2HxyjHTgqROEiRyxZ6q-24" value="datum" style="ellipse;whiteSpace=wrap;html=1;align=center;" vertex="1" parent="1">
          <mxGeometry x="287.5" y="230" width="65" height="30" as="geometry" />
        </mxCell>
        <mxCell id="X2HxyjHTgqROEiRyxZ6q-25" value="narucilac_id" style="ellipse;whiteSpace=wrap;html=1;align=center;" vertex="1" parent="1">
          <mxGeometry x="390" y="280" width="100" height="30" as="geometry" />
        </mxCell>
        <mxCell id="X2HxyjHTgqROEiRyxZ6q-26" value="ima" style="shape=rhombus;perimeter=rhombusPerimeter;whiteSpace=wrap;html=1;align=center;" vertex="1" parent="1">
          <mxGeometry x="550" y="600" width="120" height="60" as="geometry" />
        </mxCell>
        <mxCell id="X2HxyjHTgqROEiRyxZ6q-27" value="" style="endArrow=none;html=1;rounded=0;entryX=0.5;entryY=0;entryDx=0;entryDy=0;exitX=0.5;exitY=1;exitDx=0;exitDy=0;" edge="1" parent="1" source="X2HxyjHTgqROEiRyxZ6q-26" target="X2HxyjHTgqROEiRyxZ6q-3">
          <mxGeometry relative="1" as="geometry">
            <mxPoint x="380" y="510" as="sourcePoint" />
            <mxPoint x="540" y="510" as="targetPoint" />
          </mxGeometry>
        </mxCell>
        <mxCell id="X2HxyjHTgqROEiRyxZ6q-59" value="1,n" style="edgeLabel;html=1;align=center;verticalAlign=middle;resizable=0;points=[];" vertex="1" connectable="0" parent="X2HxyjHTgqROEiRyxZ6q-27">
          <mxGeometry x="-0.0667" y="-1" relative="1" as="geometry">
            <mxPoint as="offset" />
          </mxGeometry>
        </mxCell>
        <mxCell id="X2HxyjHTgqROEiRyxZ6q-28" value="" style="endArrow=none;html=1;rounded=0;entryX=0.5;entryY=0;entryDx=0;entryDy=0;exitX=0.5;exitY=1;exitDx=0;exitDy=0;" edge="1" parent="1" source="X2HxyjHTgqROEiRyxZ6q-4" target="X2HxyjHTgqROEiRyxZ6q-26">
          <mxGeometry relative="1" as="geometry">
            <mxPoint x="890" y="480" as="sourcePoint" />
            <mxPoint x="920" y="430" as="targetPoint" />
          </mxGeometry>
        </mxCell>
        <mxCell id="X2HxyjHTgqROEiRyxZ6q-60" value="1,1" style="edgeLabel;html=1;align=center;verticalAlign=middle;resizable=0;points=[];" vertex="1" connectable="0" parent="X2HxyjHTgqROEiRyxZ6q-28">
          <mxGeometry x="-0.137" y="1" relative="1" as="geometry">
            <mxPoint as="offset" />
          </mxGeometry>
        </mxCell>
        <mxCell id="X2HxyjHTgqROEiRyxZ6q-29" value="vrsi" style="shape=rhombus;perimeter=rhombusPerimeter;whiteSpace=wrap;html=1;align=center;" vertex="1" parent="1">
          <mxGeometry x="260" y="500" width="120" height="60" as="geometry" />
        </mxCell>
        <mxCell id="X2HxyjHTgqROEiRyxZ6q-30" value="" style="endArrow=none;html=1;rounded=0;entryX=0.5;entryY=1;entryDx=0;entryDy=0;exitX=0.5;exitY=0;exitDx=0;exitDy=0;" edge="1" source="X2HxyjHTgqROEiRyxZ6q-29" parent="1" target="X2HxyjHTgqROEiRyxZ6q-1">
          <mxGeometry relative="1" as="geometry">
            <mxPoint x="-240" y="655" as="sourcePoint" />
            <mxPoint x="260" y="555" as="targetPoint" />
          </mxGeometry>
        </mxCell>
        <mxCell id="X2HxyjHTgqROEiRyxZ6q-62" value="1,1" style="edgeLabel;html=1;align=center;verticalAlign=middle;resizable=0;points=[];" vertex="1" connectable="0" parent="X2HxyjHTgqROEiRyxZ6q-30">
          <mxGeometry x="0.0156" y="-2" relative="1" as="geometry">
            <mxPoint as="offset" />
          </mxGeometry>
        </mxCell>
        <mxCell id="X2HxyjHTgqROEiRyxZ6q-31" value="" style="endArrow=none;html=1;rounded=0;entryX=0;entryY=0.5;entryDx=0;entryDy=0;exitX=1;exitY=0.5;exitDx=0;exitDy=0;" edge="1" target="X2HxyjHTgqROEiRyxZ6q-29" parent="1" source="X2HxyjHTgqROEiRyxZ6q-2">
          <mxGeometry relative="1" as="geometry">
            <mxPoint x="260" y="705" as="sourcePoint" />
            <mxPoint x="300" y="535" as="targetPoint" />
          </mxGeometry>
        </mxCell>
        <mxCell id="X2HxyjHTgqROEiRyxZ6q-61" value="1,n" style="edgeLabel;html=1;align=center;verticalAlign=middle;resizable=0;points=[];" vertex="1" connectable="0" parent="X2HxyjHTgqROEiRyxZ6q-31">
          <mxGeometry x="0.3394" y="-1" relative="1" as="geometry">
            <mxPoint as="offset" />
          </mxGeometry>
        </mxCell>
        <mxCell id="X2HxyjHTgqROEiRyxZ6q-33" value="" style="endArrow=none;html=1;rounded=0;exitX=0.5;exitY=1;exitDx=0;exitDy=0;entryX=0.5;entryY=0;entryDx=0;entryDy=0;" edge="1" parent="1" source="X2HxyjHTgqROEiRyxZ6q-32" target="X2HxyjHTgqROEiRyxZ6q-4">
          <mxGeometry relative="1" as="geometry">
            <mxPoint x="380" y="510" as="sourcePoint" />
            <mxPoint x="540" y="510" as="targetPoint" />
          </mxGeometry>
        </mxCell>
        <mxCell id="X2HxyjHTgqROEiRyxZ6q-64" value="1,n" style="edgeLabel;html=1;align=center;verticalAlign=middle;resizable=0;points=[];" vertex="1" connectable="0" parent="X2HxyjHTgqROEiRyxZ6q-33">
          <mxGeometry x="-0.0515" y="1" relative="1" as="geometry">
            <mxPoint as="offset" />
          </mxGeometry>
        </mxCell>
        <mxCell id="X2HxyjHTgqROEiRyxZ6q-34" value="" style="endArrow=none;html=1;rounded=0;exitX=1;exitY=0.5;exitDx=0;exitDy=0;entryX=0;entryY=0.5;entryDx=0;entryDy=0;" edge="1" parent="1" source="X2HxyjHTgqROEiRyxZ6q-1" target="X2HxyjHTgqROEiRyxZ6q-32">
          <mxGeometry relative="1" as="geometry">
            <mxPoint x="150" y="450" as="sourcePoint" />
            <mxPoint x="830" y="600" as="targetPoint" />
          </mxGeometry>
        </mxCell>
        <mxCell id="X2HxyjHTgqROEiRyxZ6q-63" value="1,n" style="edgeLabel;html=1;align=center;verticalAlign=middle;resizable=0;points=[];" vertex="1" connectable="0" parent="X2HxyjHTgqROEiRyxZ6q-34">
          <mxGeometry x="-0.2278" y="-1" relative="1" as="geometry">
            <mxPoint as="offset" />
          </mxGeometry>
        </mxCell>
        <mxCell id="X2HxyjHTgqROEiRyxZ6q-32" value="nalazi" style="shape=rhombus;perimeter=rhombusPerimeter;whiteSpace=wrap;html=1;align=center;" vertex="1" parent="1">
          <mxGeometry x="550" y="300" width="120" height="60" as="geometry" />
        </mxCell>
        <mxCell id="X2HxyjHTgqROEiRyxZ6q-35" value="" style="endArrow=none;html=1;rounded=0;entryX=0;entryY=0.5;entryDx=0;entryDy=0;exitX=1;exitY=0.5;exitDx=0;exitDy=0;" edge="1" parent="1" source="X2HxyjHTgqROEiRyxZ6q-36" target="X2HxyjHTgqROEiRyxZ6q-1">
          <mxGeometry relative="1" as="geometry">
            <mxPoint x="210" y="650" as="sourcePoint" />
            <mxPoint x="220" y="340" as="targetPoint" />
          </mxGeometry>
        </mxCell>
        <mxCell id="X2HxyjHTgqROEiRyxZ6q-65" value="0,1" style="edgeLabel;html=1;align=center;verticalAlign=middle;resizable=0;points=[];" vertex="1" connectable="0" parent="X2HxyjHTgqROEiRyxZ6q-35">
          <mxGeometry x="-0.1303" y="-2" relative="1" as="geometry">
            <mxPoint as="offset" />
          </mxGeometry>
        </mxCell>
        <mxCell id="X2HxyjHTgqROEiRyxZ6q-37" value="" style="endArrow=none;html=1;rounded=0;entryX=0;entryY=0.5;entryDx=0;entryDy=0;exitX=1;exitY=0.5;exitDx=0;exitDy=0;" edge="1" parent="1" source="X2HxyjHTgqROEiRyxZ6q-5" target="X2HxyjHTgqROEiRyxZ6q-36">
          <mxGeometry relative="1" as="geometry">
            <mxPoint x="-180" y="260" as="sourcePoint" />
            <mxPoint x="110" y="330" as="targetPoint" />
          </mxGeometry>
        </mxCell>
        <mxCell id="X2HxyjHTgqROEiRyxZ6q-66" value="1,n" style="edgeLabel;html=1;align=center;verticalAlign=middle;resizable=0;points=[];" vertex="1" connectable="0" parent="X2HxyjHTgqROEiRyxZ6q-37">
          <mxGeometry x="0.081" y="2" relative="1" as="geometry">
            <mxPoint as="offset" />
          </mxGeometry>
        </mxCell>
        <mxCell id="X2HxyjHTgqROEiRyxZ6q-36" value="dostavlja" style="shape=rhombus;perimeter=rhombusPerimeter;whiteSpace=wrap;html=1;align=center;" vertex="1" parent="1">
          <mxGeometry x="40" y="300" width="120" height="60" as="geometry" />
        </mxCell>
        <mxCell id="X2HxyjHTgqROEiRyxZ6q-38" value="" style="endArrow=none;html=1;rounded=0;entryX=1;entryY=0.5;entryDx=0;entryDy=0;exitX=0;exitY=0.25;exitDx=0;exitDy=0;" edge="1" parent="1" source="X2HxyjHTgqROEiRyxZ6q-1" target="X2HxyjHTgqROEiRyxZ6q-21">
          <mxGeometry relative="1" as="geometry">
            <mxPoint x="330" y="550" as="sourcePoint" />
            <mxPoint x="330" y="360" as="targetPoint" />
          </mxGeometry>
        </mxCell>
        <mxCell id="X2HxyjHTgqROEiRyxZ6q-39" value="" style="endArrow=none;html=1;rounded=0;entryX=1;entryY=1;entryDx=0;entryDy=0;exitX=0.25;exitY=0;exitDx=0;exitDy=0;" edge="1" parent="1" source="X2HxyjHTgqROEiRyxZ6q-1" target="X2HxyjHTgqROEiRyxZ6q-23">
          <mxGeometry relative="1" as="geometry">
            <mxPoint x="280" y="330" as="sourcePoint" />
            <mxPoint x="250" y="305" as="targetPoint" />
          </mxGeometry>
        </mxCell>
        <mxCell id="X2HxyjHTgqROEiRyxZ6q-40" value="" style="endArrow=none;html=1;rounded=0;entryX=0.5;entryY=1;entryDx=0;entryDy=0;exitX=0.5;exitY=0;exitDx=0;exitDy=0;" edge="1" parent="1" source="X2HxyjHTgqROEiRyxZ6q-1" target="X2HxyjHTgqROEiRyxZ6q-24">
          <mxGeometry relative="1" as="geometry">
            <mxPoint x="305" y="320" as="sourcePoint" />
            <mxPoint x="271" y="276" as="targetPoint" />
          </mxGeometry>
        </mxCell>
        <mxCell id="X2HxyjHTgqROEiRyxZ6q-41" value="" style="endArrow=none;html=1;rounded=0;entryX=0;entryY=1;entryDx=0;entryDy=0;exitX=0.75;exitY=0;exitDx=0;exitDy=0;" edge="1" parent="1" source="X2HxyjHTgqROEiRyxZ6q-1" target="X2HxyjHTgqROEiRyxZ6q-22">
          <mxGeometry relative="1" as="geometry">
            <mxPoint x="330" y="320" as="sourcePoint" />
            <mxPoint x="323" y="270" as="targetPoint" />
          </mxGeometry>
        </mxCell>
        <mxCell id="X2HxyjHTgqROEiRyxZ6q-42" value="" style="endArrow=none;html=1;rounded=0;entryX=0;entryY=0.5;entryDx=0;entryDy=0;exitX=1;exitY=0;exitDx=0;exitDy=0;" edge="1" parent="1" source="X2HxyjHTgqROEiRyxZ6q-1" target="X2HxyjHTgqROEiRyxZ6q-25">
          <mxGeometry relative="1" as="geometry">
            <mxPoint x="355" y="320" as="sourcePoint" />
            <mxPoint x="383" y="266" as="targetPoint" />
          </mxGeometry>
        </mxCell>
        <mxCell id="X2HxyjHTgqROEiRyxZ6q-43" value="" style="endArrow=none;html=1;rounded=0;entryX=1;entryY=0.5;entryDx=0;entryDy=0;exitX=0;exitY=0;exitDx=0;exitDy=0;" edge="1" parent="1" source="X2HxyjHTgqROEiRyxZ6q-5" target="X2HxyjHTgqROEiRyxZ6q-15">
          <mxGeometry relative="1" as="geometry">
            <mxPoint x="365" y="320" as="sourcePoint" />
            <mxPoint x="393" y="266" as="targetPoint" />
          </mxGeometry>
        </mxCell>
        <mxCell id="X2HxyjHTgqROEiRyxZ6q-44" value="" style="endArrow=none;html=1;rounded=0;entryX=1;entryY=0.5;entryDx=0;entryDy=0;exitX=0;exitY=0.5;exitDx=0;exitDy=0;" edge="1" parent="1" source="X2HxyjHTgqROEiRyxZ6q-5" target="X2HxyjHTgqROEiRyxZ6q-14">
          <mxGeometry relative="1" as="geometry">
            <mxPoint x="-120" y="320" as="sourcePoint" />
            <mxPoint x="-120" y="295" as="targetPoint" />
          </mxGeometry>
        </mxCell>
        <mxCell id="X2HxyjHTgqROEiRyxZ6q-45" value="" style="endArrow=none;html=1;rounded=0;entryX=1;entryY=0;entryDx=0;entryDy=0;exitX=0;exitY=1;exitDx=0;exitDy=0;" edge="1" parent="1" source="X2HxyjHTgqROEiRyxZ6q-5" target="X2HxyjHTgqROEiRyxZ6q-13">
          <mxGeometry relative="1" as="geometry">
            <mxPoint x="-120" y="340" as="sourcePoint" />
            <mxPoint x="-140" y="345" as="targetPoint" />
          </mxGeometry>
        </mxCell>
        <mxCell id="X2HxyjHTgqROEiRyxZ6q-46" value="" style="endArrow=none;html=1;rounded=0;entryX=0.25;entryY=0;entryDx=0;entryDy=0;exitX=0.5;exitY=1;exitDx=0;exitDy=0;" edge="1" parent="1" source="X2HxyjHTgqROEiRyxZ6q-17" target="X2HxyjHTgqROEiRyxZ6q-2">
          <mxGeometry relative="1" as="geometry">
            <mxPoint x="-130" y="320" as="sourcePoint" />
            <mxPoint x="-137" y="344" as="targetPoint" />
          </mxGeometry>
        </mxCell>
        <mxCell id="X2HxyjHTgqROEiRyxZ6q-47" value="" style="endArrow=none;html=1;rounded=0;entryX=0;entryY=0.25;entryDx=0;entryDy=0;exitX=1;exitY=0.5;exitDx=0;exitDy=0;" edge="1" parent="1" source="X2HxyjHTgqROEiRyxZ6q-20" target="X2HxyjHTgqROEiRyxZ6q-2">
          <mxGeometry relative="1" as="geometry">
            <mxPoint x="60" y="490" as="sourcePoint" />
            <mxPoint x="85" y="520" as="targetPoint" />
          </mxGeometry>
        </mxCell>
        <mxCell id="X2HxyjHTgqROEiRyxZ6q-48" value="" style="endArrow=none;html=1;rounded=0;entryX=0;entryY=0.75;entryDx=0;entryDy=0;exitX=1;exitY=0.5;exitDx=0;exitDy=0;" edge="1" parent="1" source="X2HxyjHTgqROEiRyxZ6q-18" target="X2HxyjHTgqROEiRyxZ6q-2">
          <mxGeometry relative="1" as="geometry">
            <mxPoint x="40" y="515" as="sourcePoint" />
            <mxPoint x="60" y="530" as="targetPoint" />
          </mxGeometry>
        </mxCell>
        <mxCell id="X2HxyjHTgqROEiRyxZ6q-49" value="" style="endArrow=none;html=1;rounded=0;entryX=0.25;entryY=1;entryDx=0;entryDy=0;exitX=0.5;exitY=0;exitDx=0;exitDy=0;" edge="1" parent="1" source="X2HxyjHTgqROEiRyxZ6q-19" target="X2HxyjHTgqROEiRyxZ6q-2">
          <mxGeometry relative="1" as="geometry">
            <mxPoint x="40" y="565" as="sourcePoint" />
            <mxPoint x="60" y="550" as="targetPoint" />
          </mxGeometry>
        </mxCell>
        <mxCell id="X2HxyjHTgqROEiRyxZ6q-50" value="" style="endArrow=none;html=1;rounded=0;exitX=0;exitY=0.5;exitDx=0;exitDy=0;entryX=1;entryY=0.25;entryDx=0;entryDy=0;" edge="1" parent="1" source="X2HxyjHTgqROEiRyxZ6q-9" target="X2HxyjHTgqROEiRyxZ6q-4">
          <mxGeometry relative="1" as="geometry">
            <mxPoint x="80" y="620" as="sourcePoint" />
            <mxPoint x="670" y="490" as="targetPoint" />
          </mxGeometry>
        </mxCell>
        <mxCell id="X2HxyjHTgqROEiRyxZ6q-51" value="" style="endArrow=none;html=1;rounded=0;entryX=1;entryY=0.75;entryDx=0;entryDy=0;exitX=0;exitY=0;exitDx=0;exitDy=0;" edge="1" parent="1" source="X2HxyjHTgqROEiRyxZ6q-12" target="X2HxyjHTgqROEiRyxZ6q-4">
          <mxGeometry relative="1" as="geometry">
            <mxPoint x="530" y="489" as="sourcePoint" />
            <mxPoint x="570" y="480" as="targetPoint" />
          </mxGeometry>
        </mxCell>
        <mxCell id="X2HxyjHTgqROEiRyxZ6q-52" value="" style="endArrow=none;html=1;rounded=0;entryX=0.75;entryY=1;entryDx=0;entryDy=0;exitX=0.5;exitY=0;exitDx=0;exitDy=0;" edge="1" parent="1" source="X2HxyjHTgqROEiRyxZ6q-11" target="X2HxyjHTgqROEiRyxZ6q-4">
          <mxGeometry relative="1" as="geometry">
            <mxPoint x="550" y="544" as="sourcePoint" />
            <mxPoint x="570" y="510" as="targetPoint" />
          </mxGeometry>
        </mxCell>
        <mxCell id="X2HxyjHTgqROEiRyxZ6q-53" value="" style="endArrow=none;html=1;rounded=0;entryX=0.75;entryY=0;entryDx=0;entryDy=0;exitX=0;exitY=1;exitDx=0;exitDy=0;" edge="1" parent="1" source="X2HxyjHTgqROEiRyxZ6q-10" target="X2HxyjHTgqROEiRyxZ6q-4">
          <mxGeometry relative="1" as="geometry">
            <mxPoint x="600" y="560" as="sourcePoint" />
            <mxPoint x="595" y="520" as="targetPoint" />
          </mxGeometry>
        </mxCell>
        <mxCell id="X2HxyjHTgqROEiRyxZ6q-54" value="" style="endArrow=none;html=1;rounded=0;entryX=0.5;entryY=0;entryDx=0;entryDy=0;exitX=0.75;exitY=1;exitDx=0;exitDy=0;" edge="1" parent="1" source="X2HxyjHTgqROEiRyxZ6q-3" target="X2HxyjHTgqROEiRyxZ6q-7">
          <mxGeometry relative="1" as="geometry">
            <mxPoint x="662" y="529" as="sourcePoint" />
            <mxPoint x="645" y="500" as="targetPoint" />
          </mxGeometry>
        </mxCell>
        <mxCell id="X2HxyjHTgqROEiRyxZ6q-55" value="" style="endArrow=none;html=1;rounded=0;entryX=0;entryY=0.5;entryDx=0;entryDy=0;exitX=1;exitY=1;exitDx=0;exitDy=0;" edge="1" parent="1" source="X2HxyjHTgqROEiRyxZ6q-3" target="X2HxyjHTgqROEiRyxZ6q-8">
          <mxGeometry relative="1" as="geometry">
            <mxPoint x="1035" y="500" as="sourcePoint" />
            <mxPoint x="1030" y="520" as="targetPoint" />
          </mxGeometry>
        </mxCell>
        <mxCell id="X2HxyjHTgqROEiRyxZ6q-57" value="" style="endArrow=none;html=1;rounded=0;entryX=0.25;entryY=1;entryDx=0;entryDy=0;exitX=1;exitY=0;exitDx=0;exitDy=0;" edge="1" parent="1" source="X2HxyjHTgqROEiRyxZ6q-6" target="X2HxyjHTgqROEiRyxZ6q-3">
          <mxGeometry relative="1" as="geometry">
            <mxPoint x="1060" y="500" as="sourcePoint" />
            <mxPoint x="1080" y="505" as="targetPoint" />
          </mxGeometry>
        </mxCell>
      </root>
    </mxGraphModel>
  </diagram>
</mxfile>
